<svg width="512" height="512" viewBox="0 0 512 512" fill="none" xmlns="http://www.w3.org/2000/svg">
<circle cx="256" cy="256" r="256" fill="#D4EDBF"/>
<path d="M176.628 258.012C171.614 258.012 167.29 256.32 163.656 252.936C160.146 249.427 158.392 244.977 158.392 239.588C158.392 234.199 160.146 229.875 163.656 226.616C167.29 223.232 171.614 221.54 176.628 221.54C181.766 221.54 186.09 223.232 189.6 226.616C193.109 229.875 194.864 234.199 194.864 239.588C194.864 244.977 193.109 249.427 189.6 252.936C186.09 256.32 181.766 258.012 176.628 258.012ZM176.628 325.504C171.614 325.504 167.29 323.812 163.656 320.428C160.146 316.919 158.392 312.469 158.392 307.08C158.392 301.691 160.146 297.367 163.656 294.108C167.29 290.724 171.614 289.032 176.628 289.032C181.766 289.032 186.09 290.724 189.6 294.108C193.109 297.367 194.864 301.691 194.864 307.08C194.864 312.469 193.109 316.919 189.6 320.428C186.09 323.812 181.766 325.504 176.628 325.504Z" fill="#2E271C"/>
<path d="M216.807 324V192.4H276.591C290.879 192.4 303.475 195.157 314.379 200.672C325.283 206.061 333.805 213.644 339.947 223.42C346.088 233.196 349.159 244.789 349.159 258.2C349.159 271.485 346.088 283.079 339.947 292.98C333.805 302.756 325.283 310.401 314.379 315.916C303.475 321.305 290.879 324 276.591 324H216.807ZM247.263 298.996H275.087C283.86 298.996 291.443 297.367 297.835 294.108C304.352 290.724 309.365 285.961 312.875 279.82C316.509 273.679 318.327 266.472 318.327 258.2C318.327 249.803 316.509 242.596 312.875 236.58C309.365 230.439 304.352 225.739 297.835 222.48C291.443 219.096 283.86 217.404 275.087 217.404H247.263V298.996Z" fill="#2E271C"/>
</svg>
