<svg width="24" height="24" viewBox="0 0 24 24" fill="none" xmlns="http://www.w3.org/2000/svg">
<path fill-rule="evenodd" clip-rule="evenodd" d="M0 12C0 5.37258 5.37258 0 12 0C18.6274 0 24 5.37258 24 12C24 15.6699 22.3513 18.9558 19.7578 21.1554C19.1282 21.6894 18.4426 22.1597 17.7108 22.5564C16.0117 23.4774 14.0654 24 12 24C9.93454 24 7.98818 23.4773 6.28894 22.5563C5.55721 22.1596 4.8716 21.6893 4.242 21.1553C1.64858 18.9557 0 15.6698 0 12ZM12 4.4C12.5523 4.4 13 4.84772 13 5.4V11.6379L15.5182 14.6598C15.8718 15.0841 15.8145 15.7147 15.3902 16.0682C14.9659 16.4218 14.3353 16.3645 13.9818 15.9402L11.2318 12.6402C11.082 12.4605 11 12.2339 11 12V5.4C11 4.84772 11.4477 4.4 12 4.4Z" fill="#2E271C"/>
</svg>
